<svg xmlns="http://www.w3.org/2000/svg" width="21" height="18" viewBox="0 0 21 18"><defs><style>.a{fill:#727272;}</style></defs><g transform="translate(-2 -6)"><path class="a" d="M6.3,18a.348.348,0,0,1-.35-.345V16.615H2.8v-.692H5.95V14.885a.348.348,0,0,1,.35-.346h4.2a.348.348,0,0,1,.35.346v1.038h4.2v.692h-4.2v1.039A.348.348,0,0,1,10.5,18Zm13.649-1.385v-.692h.7v.692Zm-1.4,0v-.692h.7v.692Zm-1.4,0v-.692h.7v.692Zm-1.4,0v-.692h.7v.692Zm-14.35,0v-.692h.7v.692Zm-1.4,0v-.692H.7v.692Zm12.25-3.461a.348.348,0,0,1-.35-.346V11.77h-7v-.693h7V10.039a.348.348,0,0,1,.35-.346h4.2a.348.348,0,0,1,.349.346v1.038h2.8v.693H16.8v1.038a.348.348,0,0,1-.349.346ZM20.3,11.77v-.693H21v.693Zm-16.8,0v-.693h.7v.693Zm-1.4,0v-.693h.7v.693Zm-1.4,0v-.693h.7v.693ZM3.5,8.308a.348.348,0,0,1-.35-.346V6.923H1.75V6.231h1.4V5.192a.348.348,0,0,1,.35-.345H7.7a.348.348,0,0,1,.35.345V6.231h8.4v.692H8.05V7.961a.348.348,0,0,1-.35.346ZM19.949,6.923V6.231h.7v.692Zm-1.4,0V6.231h.7v.692Zm-1.4,0V6.231h.7v.692Zm-16.8,0V6.231h.7v.692ZM11.9,3.462a.349.349,0,0,1-.35-.346V2.077h-7V1.385h7V.346A.349.349,0,0,1,11.9,0h4.2a.349.349,0,0,1,.35.346V1.385h1.4v.693h-1.4V3.116a.349.349,0,0,1-.35.346Zm8.049-1.385V1.385h.7v.693Zm-1.4,0V1.385h.7v.693Zm-15.4,0V1.385h.7v.693Zm-1.4,0V1.385h.7v.693Zm-1.4,0V1.385h.7v.693Z" transform="translate(2 6)"/></g></svg>