<svg xmlns="http://www.w3.org/2000/svg" width="21" height="16" viewBox="0 0 21 16"><defs><style>.a{fill:#03a9f4;}</style></defs><path class="a" d="M17.848,55.52a.847.847,0,0,0-1.042-.094c-1.227.8-7.384,4.834-8.046,5.468a2.293,2.293,0,0,0,0,3.336,2.54,2.54,0,0,0,3.48,0c.662-.634,4.869-6.535,5.705-7.711A.762.762,0,0,0,17.848,55.52Zm-6.768,7.6a.847.847,0,0,1-1.16,0,.764.764,0,0,1,0-1.112c.257-.243,2.005-1.438,4.156-2.871C12.581,61.2,11.334,62.872,11.08,63.119ZM21,62.563a9.732,9.732,0,0,1-1.779,5.587.83.83,0,0,1-.682.349.848.848,0,0,1-.352-.076l-1.723-.786a.772.772,0,0,1-.388-1.048.836.836,0,0,1,1.093-.372l1.057.483a8.152,8.152,0,0,0,.353-7.626.773.773,0,0,1,.41-1.04.835.835,0,0,1,1.085.393A9.636,9.636,0,0,1,21,62.563ZM4.88,66.582A.772.772,0,0,1,4.5,67.633l-1.682.786a.847.847,0,0,1-.359.08.831.831,0,0,1-.682-.349,9.725,9.725,0,0,1,1.3-12.7A10.665,10.665,0,0,1,10.5,52.5a10.8,10.8,0,0,1,4.316.887.773.773,0,0,1,.41,1.04.835.835,0,0,1-1.085.393,9.061,9.061,0,0,0-2.821-.712V55.29a.821.821,0,0,1-1.641,0V54.108a8.921,8.921,0,0,0-6.738,4.03l1.146.527a.772.772,0,0,1,.385,1.049.824.824,0,0,1-.74.446.847.847,0,0,1-.354-.078l-1.16-.533a8.137,8.137,0,0,0,.553,7.145l1.013-.473A.837.837,0,0,1,4.88,66.582Z" transform="translate(0 -52.499)"/></svg>