<svg xmlns="http://www.w3.org/2000/svg" width="18" height="12.001" viewBox="0 0 18 12.001"><defs><style>.a{fill:#727272;}</style></defs><g transform="translate(0 -74.667)"><path class="a" d="M-150-189a9.676,9.676,0,0,1,9-6,9.67,9.67,0,0,1,9,6,9.67,9.67,0,0,1-9,6A9.676,9.676,0,0,1-150-189Zm4.91,0a4.047,4.047,0,0,0,4.09,4,4.048,4.048,0,0,0,4.091-4A4.048,4.048,0,0,0-141-193,4.047,4.047,0,0,0-145.091-189Zm1.524,0A2.569,2.569,0,0,1-141-191.567,2.569,2.569,0,0,1-138.433-189,2.569,2.569,0,0,1-141-186.433,2.569,2.569,0,0,1-143.567-189Z" transform="translate(150 269.667)"/></g></svg>