<svg xmlns="http://www.w3.org/2000/svg" width="21" height="17.001" viewBox="0 0 21 17.001"><defs><style>.a{fill:#727272;}</style></defs><g transform="translate(0 -48.76)"><path class="a" d="M6.345,17V.793h5.1V17Zm1.132-2.683h2.835V13.071H7.477Zm0-2.4h2.835V10.672H7.477Zm.009-2.4H10.3V2.283H7.485ZM0,17V.793H5.1V17Zm1.132-2.683H3.967V13.071H1.132Zm0-2.4H3.967V10.672H1.132Zm.009-2.4H3.958V2.283H1.14ZM12.838.995l5-.995L21,15.9l-5,.995Zm3.5,11.822.243,1.223,2.781-.554-.243-1.222Zm-.468-2.353.243,1.222,2.781-.553-.243-1.222Zm-1.628-8.23,1.412,7.1,2.764-.55-1.412-7.1Z" transform="translate(0 48.76)"/></g></svg>